<svg width="31" height="36" viewBox="0 0 31 36" fill="none" xmlns="http://www.w3.org/2000/svg">
<path d="M19.187 1.22703C19.187 0.54936 18.6376 0 17.96 0H12.7407C12.063 0 11.5137 0.549359 11.5137 1.22703V34.5103C11.5137 35.188 12.063 35.7373 12.7407 35.7373H17.96C18.6376 35.7373 19.187 35.188 19.187 34.5103V1.22703Z" fill="white"/>
<path d="M19.1833 6.27558V11.1049C19.1833 12.4434 18.1438 13.5196 16.8511 13.5196H5.84292C5.32316 13.5196 4.80338 13.3264 4.39023 12.9953L1.47157 10.5806C-0.490676 8.69027 -0.490471 8.69027 1.47157 6.79992L4.39023 4.38523C4.80338 4.05408 5.32316 3.8609 5.84292 3.8609H16.8511C18.1438 3.8609 19.1833 4.93716 19.1833 6.27558Z" fill="white"/>
<path d="M19.1833 16.9008V21.7301C19.1833 23.0686 18.1438 24.1448 16.8511 24.1448H5.84292C5.32316 24.1448 4.80338 23.9516 4.39023 23.6205L1.47157 21.2058C-0.490676 19.3154 -0.490471 19.3154 1.47157 17.4251L4.39023 15.0104C4.80338 14.6793 5.32316 14.4861 5.84292 14.4861H16.8511C18.1438 14.4861 19.1833 15.5623 19.1833 16.9008Z" fill="white"/>
<path d="M11.511 12.0722V16.9015C11.511 18.2399 12.5505 19.3162 13.8433 19.3162H24.8514C25.3712 19.3162 25.891 19.123 26.3041 18.7919L29.2228 16.3772C31.185 14.4868 31.1848 14.4868 29.2228 12.5965L26.3041 10.1818C25.891 9.85065 25.3712 9.65747 24.8514 9.65747H13.8433C12.5505 9.65747 11.511 10.7337 11.511 12.0722Z" fill="white"/>
</svg>
