<svg width="61" height="61" viewBox="0 0 61 61" fill="none" xmlns="http://www.w3.org/2000/svg">
<rect width="61" height="61" rx="30.5" fill="url(#paint0_linear_82_1368)"/>
<path fill-rule="evenodd" clip-rule="evenodd" d="M13.8073 30.1784C22.6987 26.3045 28.6277 23.7507 31.5942 22.5168C40.0644 18.9937 41.8244 18.3818 42.9716 18.3615C43.2239 18.3571 43.7881 18.4196 44.1535 18.7161C44.462 18.9665 44.5469 19.3047 44.5876 19.5421C44.6282 19.7795 44.6788 20.3203 44.6386 20.7428C44.1796 25.5656 42.1935 37.2692 41.1831 42.6707C40.7555 44.9563 39.9137 45.7227 39.0987 45.7977C37.3275 45.9607 35.9825 44.6272 34.267 43.5026C31.5826 41.743 30.0661 40.6476 27.4604 38.9305C24.4491 36.9461 26.4012 35.8554 28.1174 34.073C28.5665 33.6065 36.3704 26.5083 36.5214 25.8643C36.5403 25.7838 36.5579 25.4836 36.3795 25.3251C36.2012 25.1666 35.938 25.2208 35.748 25.2639C35.4788 25.325 31.1904 28.1595 22.883 33.7672C21.6657 34.6031 20.5632 35.0103 19.5754 34.989C18.4863 34.9655 16.3915 34.3733 14.8343 33.867C12.9242 33.2462 11.4061 32.9179 11.5383 31.8634C11.6072 31.3142 12.3635 30.7525 13.8073 30.1784Z" fill="white"/>
<defs>
<linearGradient id="paint0_linear_82_1368" x1="30.5" y1="0" x2="30.5" y2="60.5476" gradientUnits="userSpaceOnUse">
<stop stop-color="#2AABEE"/>
<stop offset="1" stop-color="#229ED9"/>
</linearGradient>
</defs>
</svg>
