<svg width="33" height="38" viewBox="0 0 33 38" fill="none" xmlns="http://www.w3.org/2000/svg">
<path d="M20.029 1.28093C20.029 0.573492 19.4555 0 18.7481 0H13.2995C12.592 0 12.0186 0.573493 12.0186 1.28093V36.0264C12.0186 36.7338 12.592 37.3073 13.2995 37.3073H18.7481C19.4555 37.3073 20.029 36.7338 20.029 36.0264V1.28093Z" fill="#378BEE"/>
<path d="M20.0261 6.55104V11.5926C20.0261 12.9898 18.9409 14.1133 17.5914 14.1133H6.09961C5.55702 14.1133 5.0144 13.9117 4.58311 13.566L1.53622 11.0452C-0.512232 9.0718 -0.512019 9.0718 1.53622 7.0984L4.58311 4.57764C5.0144 4.23193 5.55702 4.03027 6.09961 4.03027H17.5914C18.9409 4.03027 20.0261 5.15381 20.0261 6.55104Z" fill="#378BEE"/>
<path d="M20.0261 17.6428V22.6844C20.0261 24.0816 18.9409 25.2051 17.5914 25.2051H6.09961C5.55702 25.2051 5.0144 25.0035 4.58311 24.6578L1.53622 22.137C-0.512232 20.1636 -0.512019 20.1636 1.53622 18.1902L4.58311 15.6694C5.0144 15.3237 5.55702 15.1221 6.09961 15.1221H17.5914C18.9409 15.1221 20.0261 16.2456 20.0261 17.6428Z" fill="#378BEE"/>
<path d="M12.0164 12.6028V17.6443C12.0164 19.0416 13.1016 20.1651 14.4511 20.1651H25.9429C26.4855 20.1651 27.0281 19.9634 27.4594 19.6177L30.5063 17.097C32.5547 15.1236 32.5545 15.1236 30.5063 13.1502L27.4594 10.6294C27.0281 10.2837 26.4855 10.082 25.9429 10.082H14.4511C13.1016 10.082 12.0164 11.2056 12.0164 12.6028Z" fill="#378BEE"/>
</svg>
