<svg width="60" height="60" viewBox="0 0 60 60" fill="none" xmlns="http://www.w3.org/2000/svg">
<g clip-path="url(#clip0_413_2744)">
<path d="M30.0234 60.0468C46.6048 60.0468 60.0468 46.6048 60.0468 30.0234C60.0468 13.4419 46.6048 0 30.0234 0C13.4419 0 0 13.4419 0 30.0234C0 46.6048 13.4419 60.0468 30.0234 60.0468Z" fill="white"/>
<path fill-rule="evenodd" clip-rule="evenodd" d="M13.5615 29.6963C22.3066 25.8616 28.1523 23.383 31.0985 22.1671C39.4227 18.7065 41.1531 18.0985 42.2754 18.0518C42.5093 18.0518 43.0704 18.0985 43.4446 18.3791C43.7252 18.6129 43.8187 18.9403 43.8655 19.1741C43.9122 19.408 43.959 19.9224 43.9122 20.3433C43.4446 25.0666 41.5272 36.6176 40.4983 41.9021C40.0775 44.1468 39.2357 44.8951 38.4407 44.9886C36.7103 45.1289 35.3542 43.8195 33.6706 42.7439C31.0517 41.0136 29.5552 39.938 26.9831 38.2544C24.0369 36.2903 25.9543 35.2147 27.6379 33.4843C28.0587 33.0167 35.775 26.0486 35.9153 25.3939C35.9153 25.3004 35.9621 25.0198 35.775 24.8795C35.588 24.7392 35.3541 24.786 35.1671 24.8327C34.8865 24.8795 30.6776 27.6854 22.4937 33.2037C21.2778 34.0455 20.2022 34.4196 19.2201 34.4196C18.1445 34.4196 16.0868 33.8117 14.5436 33.2973C12.6729 32.6893 11.1764 32.362 11.3167 31.3331C11.4103 30.8187 12.1585 30.2575 13.5615 29.6963Z" fill="#26A5E5"/>
</g>
<defs>
<clipPath id="clip0_413_2744">
<rect width="60" height="60" fill="white"/>
</clipPath>
</defs>
</svg>
