<svg width="40" height="40" viewBox="0 0 40 40" fill="none" xmlns="http://www.w3.org/2000/svg">
<g clip-path="url(#clip0_7_16423)">
<path d="M0 19.1667C0 10.1317 0 5.61417 2.80667 2.80667C5.61333 -0.000833238 10.1317 2.9327e-10 19.1667 2.9327e-10H20.8333C29.8683 2.9327e-10 34.3867 0 37.1933 2.80667C40 5.61417 40 10.1317 40 19.1667V20.8333C40 29.8683 40 34.3867 37.1933 37.1933C34.3858 40 29.8683 40 20.8333 40H19.1667C10.1317 40 5.61417 40 2.80667 37.1933C0 34.3858 0 29.8683 0 20.8333V19.1667Z" fill="white"/>
<path fill-rule="evenodd" clip-rule="evenodd" d="M11.4943 14.626H8.89217C8.14869 14.626 8 14.9754 8 15.362C8 16.0512 8.88176 19.4697 12.1077 23.9908C14.2578 27.0784 17.2875 28.752 20.0443 28.752C21.6985 28.752 21.9029 28.3802 21.9029 27.7401V25.4063C21.9029 24.6629 22.0591 24.5142 22.5832 24.5142C22.9698 24.5142 23.6315 24.7075 25.175 26.1959C26.9392 27.9602 27.2299 28.752 28.2225 28.752H30.8246C31.5681 28.752 31.9398 28.3802 31.7249 27.6464C31.4908 26.9156 30.6484 25.8546 29.5302 24.5974C28.9235 23.8807 28.0135 23.1083 27.7384 22.7224C27.3518 22.2265 27.4634 22.0057 27.7384 21.5648C27.7384 21.5648 30.9086 17.0988 31.2402 15.5828C31.4053 15.0312 31.2402 14.626 30.4521 14.626H27.8507C27.189 14.626 26.8842 14.9754 26.7191 15.362C26.7191 15.362 25.3958 18.5872 23.5215 20.6823C22.9148 21.289 22.639 21.4823 22.3081 21.4823C22.1431 21.4823 21.9037 21.289 21.9037 20.7381V15.5828C21.9037 14.9211 21.7111 14.626 21.1602 14.626H17.0711C16.6577 14.626 16.4094 14.933 16.4094 15.2245C16.4094 15.8512 17.3462 15.9962 17.4428 17.7597V21.5923C17.4428 22.4324 17.2912 22.5848 16.9596 22.5848C16.0778 22.5848 13.9322 19.3448 12.6593 15.6378C12.4095 14.9159 12.159 14.626 11.4943 14.626Z" fill="#2787F5"/>
</g>
<defs>
<clipPath id="clip0_7_16423">
<rect width="40" height="40" rx="20" fill="white"/>
</clipPath>
</defs>
</svg>
